<?xml version="1.0" encoding="UTF-8"?>
<svg width="21px" height="9px" viewBox="0 0 21 9" version="1.1" xmlns="http://www.w3.org/2000/svg" xmlns:xlink="http://www.w3.org/1999/xlink">
    <!-- Generator: Sketch 52.6 (67491) - http://www.bohemiancoding.com/sketch -->
    <title>path</title>
    <desc>Created with Sketch.</desc>
    <g id="Page-1" stroke="none" stroke-width="1" fill="none" fill-rule="evenodd">
        <g id="Artboard-Copy-6" transform="translate(-1836.000000, -555.000000)" fill="#000000">
            <g id="Group-3" transform="translate(1451.000000, 397.000000)">
                <g id="mascara-copy" transform="translate(385.000000, 158.000000)">
                    <g id="path">
                        <path d="M20.6373275,3.17196871 L20.617831,3.16556368 C19.9985746,2.96104062 19.4655861,2.55133757 19.0897008,1.99782241 C19.4756687,1.66684104 19.8477987,1.31275775 20.2032615,0.934477683 C20.4041418,0.720702911 20.4041418,0.374119536 20.2032615,0.160290021 C20.0024327,-0.0534300069 19.6767032,-0.0534300069 19.475823,0.160290021 C17.4584812,2.30717996 14.8816583,3.64216372 12.0952616,4.01163003 C12.0765882,4.01299863 12.058172,4.01529787 12.0400645,4.01869199 C11.5331056,4.08356346 11.0194077,4.11679298 10.5008743,4.11684773 C10.5006171,4.11684773 10.5003599,4.11679298 10.5000512,4.11679298 C10.4997426,4.11679298 10.4995368,4.11684773 10.4992282,4.11684773 C9.98069479,4.11684773 9.46699694,4.08356346 8.95998652,4.01869199 C8.941879,4.01524312 8.92351428,4.01294388 8.90478946,4.01163003 C6.1183927,3.64216372 3.54156986,2.30717996 1.52422807,0.160290021 C1.32334783,-0.0533752631 0.997669765,-0.0534300069 0.79678952,0.160290021 C0.595909275,0.374064792 0.595909275,0.720648167 0.79678952,0.934477683 C1.15225239,1.31275775 1.5243824,1.66689578 1.91035025,1.99782241 C1.53451643,2.55133757 1.00163078,2.96109536 0.382888765,3.1653447 L0.362723578,3.17196871 C0.0912651778,3.2612012 -0.0607967949,3.56765733 0.0230533456,3.85654067 C0.0912651778,4.09161081 0.294717513,4.24253963 0.514322574,4.24253963 C0.564632658,4.24253963 0.615765812,4.23460177 0.666281663,4.21801438 L0.687115594,4.2111714 C1.51574017,3.93750684 2.22944376,3.39067043 2.73480804,2.65223051 C2.91073901,2.78126179 3.08908775,2.90574932 3.26990569,3.02547414 C3.01871536,3.86425956 2.43078698,4.54204328 1.65098068,4.87127286 L1.49171685,4.93844357 C1.22761463,5.04990207 1.0984957,5.36807338 1.20317977,5.64907361 C1.28322322,5.86394326 1.47674729,5.99478109 1.68143422,5.99478109 C1.74455332,5.99478109 1.80870125,5.98229949 1.87094583,5.95607718 L2.03036398,5.88879697 C3.03095851,5.46633861 3.80212259,4.62563716 4.17903669,3.57679955 C4.37662466,3.68617778 4.57647607,3.79024586 4.77859092,3.88900378 C4.71963861,4.82769674 4.20964457,5.66560626 3.41790376,6.10519945 L3.38724445,6.12222479 C3.13533393,6.26198586 3.0375945,6.59258403 3.16887399,6.86066471 C3.26059472,7.04794346 3.43981797,7.15513193 3.62536856,7.15513193 C3.70546345,7.15513193 3.78679294,7.13515042 3.86272104,7.09299765 L3.89353468,7.07591757 C4.90364594,6.51506673 5.58689599,5.49277989 5.76596491,4.32224669 C5.9841296,4.40737339 6.20430052,4.48675199 6.42658055,4.55994453 C6.39715584,5.42823688 6.08078875,6.25350057 5.52691484,6.89652194 C5.33493403,7.11938419 5.34908053,7.46558436 5.55855155,7.66994319 C5.65731982,7.76629238 5.78180898,7.81381005 5.90593805,7.81381005 C6.04513958,7.81381005 6.18387812,7.75402976 6.28526992,7.63627571 C6.95185281,6.86236177 7.35402484,5.88534811 7.44029274,4.84893736 C7.73592879,4.92021387 8.03454846,4.98059634 8.3355859,5.03101544 C8.26891732,5.87193586 8.02642066,6.68969964 7.62301403,7.42031119 L7.55377336,7.54572937 C7.40989064,7.80641963 7.49183743,8.14183526 7.7368033,8.29500858 C7.81864721,8.34613934 7.90831028,8.37050036 7.99689306,8.37050036 C8.17333845,8.37050036 8.34505119,8.27376796 8.44088727,8.10017518 L8.5100765,7.97486649 C8.98550165,7.11385506 9.27378152,6.15134852 9.35763166,5.16092262 C9.56607385,5.17909758 9.77544199,5.19218136 9.98563321,5.20039294 L9.98563321,8.45261615 C9.98563321,8.75491174 10.2159382,9 10.4999998,9 C10.7840614,9 11.0143664,8.754857 11.0143664,8.45261615 L11.0143664,5.20039294 C11.2246091,5.19218136 11.4339258,5.17909758 11.6423679,5.16092262 C11.7262181,6.15123904 12.0144465,7.11385506 12.4898717,7.974757 L12.5591123,8.10017518 C12.6549484,8.2738227 12.8267126,8.37050036 13.0031065,8.37050036 C13.0916379,8.37050036 13.1813524,8.34613934 13.2631963,8.29500858 C13.5081622,8.14183526 13.5900575,7.80641963 13.4462262,7.54572937 L13.3769341,7.4202017 C12.973579,6.68969964 12.7310823,5.87182638 12.6644137,5.03101544 C12.9654511,4.9805416 13.2640708,4.92021387 13.5597069,4.84893736 C13.6459233,5.88529337 14.0481468,6.86236177 14.7147297,7.63627571 C14.8161729,7.75402976 14.95486,7.81381005 15.0940616,7.81381005 C15.2182421,7.81381005 15.3427312,7.76623764 15.4414481,7.66994319 C15.6508676,7.4656391 15.6650656,7.11938419 15.4730848,6.89652194 C14.9192623,6.25350057 14.6028438,5.4281274 14.5734191,4.55994453 C14.7956991,4.48675199 15.01587,4.40742813 15.2340347,4.32224669 C15.4131036,5.49283464 16.0964051,6.51512147 17.1066193,7.07597231 L17.1372786,7.09299765 C17.2132581,7.13515042 17.2945362,7.15513193 17.3746311,7.15513193 C17.5602331,7.15513193 17.7394049,7.04788871 17.8311256,6.86066471 C17.9624565,6.59258403 17.8647171,6.26193112 17.6127552,6.12222479 L17.5822502,6.10525419 C16.790355,5.665661 16.280361,4.82769674 16.2214087,3.88900378 C16.423575,3.79024586 16.6234264,3.68617778 16.8209629,3.57679955 C17.1978256,4.62563716 17.9689897,5.46633861 18.9696871,5.88885172 L19.1290538,5.95613192 C19.1912984,5.98235423 19.2554463,5.99483583 19.3185654,5.99483583 C19.5232523,5.99483583 19.7167764,5.86383377 19.7968198,5.64912836 C19.9015554,5.36807338 19.772385,5.04995681 19.5082828,4.93849832 L19.3490189,4.87127286 C18.5691612,4.54198854 17.9811814,3.86420482 17.7300425,3.0254194 C17.9108604,2.90569458 18.0892092,2.78120704 18.2651401,2.65217576 C18.7705044,3.39067043 19.4842594,3.93750684 20.3135013,4.21133563 L20.3336665,4.21795964 C20.3842338,4.23460177 20.435367,4.24248488 20.4856256,4.24248488 C20.7052821,4.24248488 20.908683,4.09150132 20.9768948,3.85648593 C21.0608478,3.56765733 20.9088373,3.2612012 20.6373275,3.17196871 Z" id="Path"></path>
                    </g>
                </g>
            </g>
        </g>
    </g>
</svg>