<?xml version="1.0" encoding="UTF-8"?>
<svg width="380px" height="273px" viewBox="0 0 380 273" version="1.1" xmlns="http://www.w3.org/2000/svg" xmlns:xlink="http://www.w3.org/1999/xlink">
    <!-- Generator: Sketch 52.6 (67491) - http://www.bohemiancoding.com/sketch -->
    <title>eyebrow</title>
    <desc>Created with Sketch.</desc>
    <g id="Page-1" stroke="none" stroke-width="1" fill="none" fill-rule="evenodd">
        <g id="eyebrow" fill="#000000" fill-rule="nonzero">
            <path d="M188.278,141.888 C177.703,139.538 166.847,141.446 157.709,147.262 C148.571,153.077 142.243,162.104 139.895,172.678 C137.544,183.252 139.454,194.108 145.269,203.246 C151.084,212.385 160.11,218.713 170.684,221.062 C173.637,221.718 176.609,222.042 179.562,222.042 C187.185,222.042 194.666,219.879 201.253,215.689 C210.392,209.874 216.72,200.847 219.068,190.273 C223.919,168.444 210.106,146.739 188.278,141.888 Z M199.545,185.934 C198.354,191.293 195.147,195.869 190.515,198.816 C185.882,201.763 180.379,202.733 175.021,201.54 C169.661,200.349 165.086,197.142 162.138,192.51 C159.191,187.878 158.224,182.376 159.415,177.016 C160.606,171.657 163.813,167.081 168.445,164.134 C171.784,162.009 175.574,160.913 179.439,160.913 C180.935,160.913 182.443,161.077 183.938,161.41 C195.002,163.869 202.004,174.871 199.545,185.934 Z" id="Shape"></path>
            <path d="M376.005,24.453 C373.128,22.058 369.154,21.47 365.706,22.93 C345.804,31.361 329.363,37.345 305.85,41.361 C306.562,34.787 306.515,28.028 305.616,21.189 C304.895,15.714 299.869,11.858 294.399,12.578 C288.923,13.297 285.069,18.32 285.788,23.794 C286.704,30.762 286.455,37.617 285.221,44.176 C277.696,44.979 269.453,45.649 260.301,46.196 C262.164,37.068 262.529,27.595 261.279,18.08 C260.559,12.604 255.538,8.751 250.062,9.469 C244.586,10.188 240.731,15.211 241.451,20.685 C242.638,29.712 241.924,38.689 239.469,47.174 C233.825,47.376 227.875,47.544 221.595,47.681 C224.304,34.551 223.862,20.871 220.117,7.587 C218.618,2.272 213.097,-0.822 207.78,0.676 C202.465,2.175 199.371,7.697 200.869,13.013 C204.148,24.643 204.125,36.67 200.949,48.004 C189.773,48.118 177.68,48.156 164.511,48.12 C164.35,48.12 164.194,48.12 164.032,48.12 C105.746,48.12 58.894,76.882 28.523,131.315 C6.064,171.572 0.618,211.344 0.373,213.205 C-0.193,217.449 2.03,221.738 6.126,223.612 C11.143,225.905 17.074,223.699 19.377,218.683 C19.516,218.379 33.628,188.001 61.575,159.987 C77.754,143.77 94.999,131.674 113.21,123.723 C103.844,134.433 96.951,147.563 93.654,162.403 C88.558,185.328 92.697,208.865 105.304,228.677 C110.998,237.623 118.12,245.313 126.32,251.54 C109.732,250.314 92.396,247.711 74.313,243.693 C68.925,242.496 63.581,245.894 62.383,251.284 C61.185,256.675 64.584,262.016 69.975,263.214 C97.479,269.326 123.464,272.378 147.863,272.378 C195.66,272.378 237.357,260.667 272.405,237.315 C312.338,210.709 335.535,173.763 347.962,147.455 C360.094,121.775 364.576,101.231 365.457,96.783 C365.498,96.633 365.547,96.487 365.581,96.333 L379.365,34.306 C380.179,30.65 378.881,26.848 376.005,24.453 Z M244.476,80.789 C247.923,76.3 250.879,71.543 253.331,66.579 C262.01,66.143 270,65.606 277.426,64.957 C267.645,81.628 250.57,93.797 229.967,96.503 C229.364,96.582 228.785,96.722 228.225,96.9 C234.267,92.339 239.743,86.954 244.476,80.789 Z M212.492,72.06 C213.276,70.661 214.007,69.242 214.706,67.813 C219.808,67.724 224.71,67.615 229.436,67.486 C229.161,67.861 228.898,68.242 228.614,68.612 C220.867,78.702 210.559,86.119 198.817,90.243 C204.1,84.884 208.715,78.801 212.492,72.06 Z M46.949,146.334 C44.176,149.13 41.535,151.939 39.02,154.737 C41.118,150.218 43.433,145.636 45.987,141.056 C72.992,92.654 112.702,68.115 164.022,68.115 C164.167,68.115 164.311,68.115 164.456,68.115 C173.945,68.14 182.897,68.127 191.383,68.076 C182.97,79.992 170.871,88.646 156.676,92.794 C116.578,95.73 79.129,113.89 46.949,146.334 Z M245.785,196.209 C237.66,232.769 201.309,255.897 164.745,247.779 C147.035,243.842 131.917,233.245 122.178,217.94 C112.438,202.634 109.24,184.451 113.177,166.74 C120.203,135.121 148.343,113.546 179.471,113.546 C184.335,113.546 189.276,114.074 194.216,115.171 C230.775,123.295 253.909,159.649 245.785,196.209 Z M261.318,220.672 C259.752,221.715 258.17,222.73 256.573,223.722 C260.474,216.613 263.461,208.854 265.306,200.549 C272.21,169.479 261.674,138.523 240.229,117.948 C289.354,119.692 322.723,114.01 341.498,109.207 C333.181,135.641 311.352,187.334 261.318,220.672 Z M347.247,86.658 C337.99,89.753 314.256,96.284 275.202,97.87 C286.659,88.469 295.528,76.181 300.82,62.289 C322.111,59.201 338.742,54.717 355.742,48.432 L347.247,86.658 Z" id="Shape"></path>
        </g>
    </g>
</svg>